<svg xmlns="http://www.w3.org/2000/svg" xmlns:xlink="http://www.w3.org/1999/xlink" contentStyleType="text/css" height="874px" preserveAspectRatio="none" style="width:1239px;height:874px;background:#FFFFFF;" version="1.1" viewBox="0 0 1239 874" width="1239px" zoomAndPan="magnify"><defs/><g><!--class Restaurante--><g id="elem_Restaurante"><rect codeLine="1" fill="#F1F1F1" height="227.2656" id="Restaurante" rx="2.5" ry="2.5" style="stroke:#181818;stroke-width:0.5;" width="125.3057" x="711.89" y="7"/><ellipse cx="730.2285" cy="23" fill="#ADD1B2" rx="11" ry="11" style="stroke:#181818;stroke-width:1.0;"/><path d="M733.1973,28.6406 Q732.6192,28.9375 731.9785,29.0781 Q731.3379,29.2344 730.6348,29.2344 Q728.1348,29.2344 726.8067,27.5938 Q725.4942,25.9375 725.4942,22.8125 Q725.4942,19.6875 726.8067,18.0313 Q728.1348,16.375 730.6348,16.375 Q731.3379,16.375 731.9785,16.5313 Q732.6348,16.6875 733.1973,16.9844 L733.1973,19.7031 Q732.5723,19.125 731.9785,18.8594 Q731.3848,18.5781 730.7598,18.5781 Q729.416,18.5781 728.7285,19.6563 Q728.041,20.7188 728.041,22.8125 Q728.041,24.9063 728.7285,25.9844 Q729.416,27.0469 730.7598,27.0469 Q731.3848,27.0469 731.9785,26.7813 Q732.5723,26.5 733.1973,25.9219 L733.1973,28.6406 Z " fill="#000000"/><text fill="#000000" font-family="sans-serif" font-size="14" lengthAdjust="spacing" textLength="85.8867" x="744.9704" y="27.8467">Restaurante</text><line style="stroke:#181818;stroke-width:0.5;" x1="712.89" x2="836.1957" y1="39" y2="39"/><rect fill="none" height="6" style="stroke:#C82930;stroke-width:1.0;" width="6" x="719.89" y="49.6484"/><text fill="#000000" font-family="sans-serif" font-size="14" lengthAdjust="spacing" textLength="54.332" x="731.89" y="55.9951">nombre</text><rect fill="none" height="6" style="stroke:#C82930;stroke-width:1.0;" width="6" x="719.89" y="65.9453"/><text fill="#000000" font-family="sans-serif" font-size="14" lengthAdjust="spacing" textLength="63.8682" x="731.89" y="72.292">direccion</text><rect fill="none" height="6" style="stroke:#C82930;stroke-width:1.0;" width="6" x="719.89" y="82.2422"/><text fill="#000000" font-family="sans-serif" font-size="14" lengthAdjust="spacing" textLength="20.1182" x="731.89" y="88.5889">rut</text><rect fill="none" height="6" style="stroke:#C82930;stroke-width:1.0;" width="6" x="719.89" y="98.5391"/><text fill="#000000" font-family="sans-serif" font-size="14" lengthAdjust="spacing" textLength="73.2129" x="731.89" y="104.8857">url_pagina</text><rect fill="none" height="6" style="stroke:#C82930;stroke-width:1.0;" width="6" x="719.89" y="114.8359"/><text fill="#000000" font-family="sans-serif" font-size="14" lengthAdjust="spacing" textLength="99.3057" x="731.89" y="121.1826">hora_apertura</text><rect fill="none" height="6" style="stroke:#C82930;stroke-width:1.0;" width="6" x="719.89" y="131.1328"/><text fill="#000000" font-family="sans-serif" font-size="14" lengthAdjust="spacing" textLength="79.0986" x="731.89" y="137.4795">hora_cierre</text><rect fill="none" height="6" style="stroke:#C82930;stroke-width:1.0;" width="6" x="719.89" y="147.4297"/><text fill="#000000" font-family="sans-serif" font-size="14" lengthAdjust="spacing" textLength="99.1143" x="731.89" y="153.7764">cap_cocineros</text><rect fill="none" height="6" style="stroke:#C82930;stroke-width:1.0;" width="6" x="719.89" y="163.7266"/><text fill="#000000" font-family="sans-serif" font-size="14" lengthAdjust="spacing" textLength="44.9531" x="731.89" y="170.0732">correo</text><rect fill="none" height="6" style="stroke:#C82930;stroke-width:1.0;" width="6" x="719.89" y="180.0234"/><text fill="#000000" font-family="sans-serif" font-size="14" lengthAdjust="spacing" textLength="57.5381" x="731.89" y="186.3701">telefono</text><line style="stroke:#181818;stroke-width:0.5;" x1="712.89" x2="836.1957" y1="193.6719" y2="193.6719"/><ellipse cx="722.89" cy="207.3203" fill="#84BE84" rx="3" ry="3" style="stroke:#038048;stroke-width:1.0;"/><text fill="#000000" font-family="sans-serif" font-size="14" lengthAdjust="spacing" textLength="43.791" x="731.89" y="210.667">abrir()</text><ellipse cx="722.89" cy="223.6172" fill="#84BE84" rx="3" ry="3" style="stroke:#038048;stroke-width:1.0;"/><text fill="#000000" font-family="sans-serif" font-size="14" lengthAdjust="spacing" textLength="53.0811" x="731.89" y="226.9639">cerrar()</text></g><!--class Pedido--><g id="elem_Pedido"><rect codeLine="15" fill="#F1F1F1" height="129.4844" id="Pedido" rx="2.5" ry="2.5" style="stroke:#181818;stroke-width:0.5;" width="170.1357" x="516.47" y="302.42"/><ellipse cx="573.6458" cy="318.42" fill="#ADD1B2" rx="11" ry="11" style="stroke:#181818;stroke-width:1.0;"/><path d="M576.6145,324.0606 Q576.0364,324.3575 575.3958,324.4981 Q574.7552,324.6544 574.052,324.6544 Q571.552,324.6544 570.2239,323.0137 Q568.9114,321.3575 568.9114,318.2325 Q568.9114,315.1075 570.2239,313.4512 Q571.552,311.795 574.052,311.795 Q574.7552,311.795 575.3958,311.9512 Q576.052,312.1075 576.6145,312.4044 L576.6145,315.1231 Q575.9895,314.545 575.3958,314.2794 Q574.802,313.9981 574.177,313.9981 Q572.8333,313.9981 572.1458,315.0762 Q571.4583,316.1387 571.4583,318.2325 Q571.4583,320.3262 572.1458,321.4044 Q572.8333,322.4669 574.177,322.4669 Q574.802,322.4669 575.3958,322.2012 Q575.9895,321.92 576.6145,321.3419 L576.6145,324.0606 Z " fill="#000000"/><text fill="#000000" font-family="sans-serif" font-size="14" lengthAdjust="spacing" textLength="47.2842" x="594.1458" y="323.2667">Pedido</text><line style="stroke:#181818;stroke-width:0.5;" x1="517.47" x2="685.6057" y1="334.42" y2="334.42"/><rect fill="none" height="6" style="stroke:#C82930;stroke-width:1.0;" width="6" x="524.47" y="345.0684"/><text fill="#000000" font-family="sans-serif" font-size="14" lengthAdjust="spacing" textLength="45.1309" x="536.47" y="351.4151">monto</text><rect fill="none" height="6" style="stroke:#C82930;stroke-width:1.0;" width="6" x="524.47" y="361.3653"/><text fill="#000000" font-family="sans-serif" font-size="14" lengthAdjust="spacing" textLength="144.1357" x="536.47" y="367.712">fecha_hora_creacion</text><rect fill="none" height="6" style="stroke:#C82930;stroke-width:1.0;" width="6" x="524.47" y="377.6622"/><text fill="#000000" font-family="sans-serif" font-size="14" lengthAdjust="spacing" textLength="47.4277" x="536.47" y="384.0089">estado</text><rect fill="none" height="6" style="stroke:#C82930;stroke-width:1.0;" width="6" x="524.47" y="393.9591"/><text fill="#000000" font-family="sans-serif" font-size="14" lengthAdjust="spacing" textLength="85.5107" x="536.47" y="400.3057">medio_pago</text><line style="stroke:#181818;stroke-width:0.5;" x1="517.47" x2="685.6057" y1="407.6075" y2="407.6075"/><ellipse cx="527.47" cy="421.2559" fill="#84BE84" rx="3" ry="3" style="stroke:#038048;stroke-width:1.0;"/><text fill="#000000" font-family="sans-serif" font-size="14" lengthAdjust="spacing" textLength="115.6094" x="536.47" y="424.6026">cambiarEstado()</text></g><!--class Cocinero--><g id="elem_Cocinero"><rect codeLine="23" fill="#F1F1F1" height="113.1875" id="Cocinero" rx="2.5" ry="2.5" style="stroke:#181818;stroke-width:0.5;" width="127.4727" x="172.8" y="746.57"/><ellipse cx="202.9818" cy="762.57" fill="#ADD1B2" rx="11" ry="11" style="stroke:#181818;stroke-width:1.0;"/><path d="M205.9505,768.2106 Q205.3724,768.5075 204.7318,768.6481 Q204.0912,768.8044 203.388,768.8044 Q200.888,768.8044 199.5599,767.1637 Q198.2474,765.5075 198.2474,762.3825 Q198.2474,759.2575 199.5599,757.6012 Q200.888,755.945 203.388,755.945 Q204.0912,755.945 204.7318,756.1012 Q205.388,756.2575 205.9505,756.5544 L205.9505,759.2731 Q205.3255,758.695 204.7318,758.4294 Q204.138,758.1481 203.513,758.1481 Q202.1693,758.1481 201.4818,759.2262 Q200.7943,760.2887 200.7943,762.3825 Q200.7943,764.4762 201.4818,765.5544 Q202.1693,766.6169 203.513,766.6169 Q204.138,766.6169 204.7318,766.3512 Q205.3255,766.07 205.9505,765.4919 L205.9505,768.2106 Z " fill="#000000"/><text fill="#000000" font-family="sans-serif" font-size="14" lengthAdjust="spacing" textLength="61.7354" x="220.3555" y="767.4167">Cocinero</text><line style="stroke:#181818;stroke-width:0.5;" x1="173.8" x2="299.2727" y1="778.57" y2="778.57"/><rect fill="none" height="6" style="stroke:#C82930;stroke-width:1.0;" width="6" x="180.8" y="789.2184"/><text fill="#000000" font-family="sans-serif" font-size="14" lengthAdjust="spacing" textLength="101.4727" x="192.8" y="795.5651">certificaciones</text><rect fill="none" height="6" style="stroke:#C82930;stroke-width:1.0;" width="6" x="180.8" y="805.5153"/><text fill="#000000" font-family="sans-serif" font-size="14" lengthAdjust="spacing" textLength="87.7051" x="192.8" y="811.862">especialidad</text><rect fill="none" height="6" style="stroke:#C82930;stroke-width:1.0;" width="6" x="180.8" y="821.8122"/><text fill="#000000" font-family="sans-serif" font-size="14" lengthAdjust="spacing" textLength="39.4844" x="192.8" y="828.1589">cargo</text><line style="stroke:#181818;stroke-width:0.5;" x1="173.8" x2="299.2727" y1="835.4606" y2="835.4606"/><ellipse cx="183.8" cy="849.1091" fill="#84BE84" rx="3" ry="3" style="stroke:#038048;stroke-width:1.0;"/><text fill="#000000" font-family="sans-serif" font-size="14" lengthAdjust="spacing" textLength="61.9814" x="192.8" y="852.4557">cocinar()</text></g><!--class Garzon--><g id="elem_Garzon"><rect codeLine="30" fill="#F1F1F1" height="129.4844" id="Garzon" rx="2.5" ry="2.5" style="stroke:#181818;stroke-width:0.5;" width="182.2148" x="399.43" y="738.43"/><ellipse cx="461.3021" cy="754.43" fill="#ADD1B2" rx="11" ry="11" style="stroke:#181818;stroke-width:1.0;"/><path d="M464.2708,760.0706 Q463.6927,760.3675 463.0521,760.5081 Q462.4114,760.6644 461.7083,760.6644 Q459.2083,760.6644 457.8802,759.0238 Q456.5677,757.3675 456.5677,754.2425 Q456.5677,751.1175 457.8802,749.4613 Q459.2083,747.805 461.7083,747.805 Q462.4114,747.805 463.0521,747.9613 Q463.7083,748.1175 464.2708,748.4144 L464.2708,751.1331 Q463.6458,750.555 463.0521,750.2894 Q462.4583,750.0081 461.8333,750.0081 Q460.4896,750.0081 459.8021,751.0863 Q459.1146,752.1488 459.1146,754.2425 Q459.1146,756.3363 459.8021,757.4144 Q460.4896,758.4769 461.8333,758.4769 Q462.4583,758.4769 463.0521,758.2113 Q463.6458,757.93 464.2708,757.3519 L464.2708,760.0706 Z " fill="#000000"/><text fill="#000000" font-family="sans-serif" font-size="14" lengthAdjust="spacing" textLength="49.9707" x="481.8021" y="759.2767">Garzon</text><line style="stroke:#181818;stroke-width:0.5;" x1="400.43" x2="580.6448" y1="770.43" y2="770.43"/><rect fill="none" height="6" style="stroke:#C82930;stroke-width:1.0;" width="6" x="407.43" y="781.0784"/><text fill="#000000" font-family="sans-serif" font-size="14" lengthAdjust="spacing" textLength="78.1758" x="419.43" y="787.4251">calificacion</text><line style="stroke:#181818;stroke-width:0.5;" x1="400.43" x2="580.6448" y1="794.7269" y2="794.7269"/><ellipse cx="410.43" cy="808.3753" fill="#84BE84" rx="3" ry="3" style="stroke:#038048;stroke-width:1.0;"/><text fill="#000000" font-family="sans-serif" font-size="14" lengthAdjust="spacing" textLength="100.2354" x="419.43" y="811.722">tomarPedido()</text><ellipse cx="410.43" cy="824.6722" fill="#84BE84" rx="3" ry="3" style="stroke:#038048;stroke-width:1.0;"/><text fill="#000000" font-family="sans-serif" font-size="14" lengthAdjust="spacing" textLength="97.2207" x="419.43" y="828.0189">llevarPedido()</text><ellipse cx="410.43" cy="840.9691" fill="#84BE84" rx="3" ry="3" style="stroke:#038048;stroke-width:1.0;"/><text fill="#000000" font-family="sans-serif" font-size="14" lengthAdjust="spacing" textLength="102.0469" x="419.43" y="844.3157">retirarPedido()</text><ellipse cx="410.43" cy="857.2659" fill="#84BE84" rx="3" ry="3" style="stroke:#038048;stroke-width:1.0;"/><text fill="#000000" font-family="sans-serif" font-size="14" lengthAdjust="spacing" textLength="156.2148" x="419.43" y="860.6126">asignarMesaReserva()</text></g><!--class Administrador--><g id="elem_Administrador"><rect codeLine="38" fill="#F1F1F1" height="96.8906" id="Administrador" rx="2.5" ry="2.5" style="stroke:#181818;stroke-width:0.5;" width="131.0801" x="7" y="754.72"/><ellipse cx="22" cy="770.72" fill="#ADD1B2" rx="11" ry="11" style="stroke:#181818;stroke-width:1.0;"/><path d="M24.9688,776.3606 Q24.3906,776.6575 23.75,776.7981 Q23.1094,776.9544 22.4063,776.9544 Q19.9063,776.9544 18.5781,775.3137 Q17.2656,773.6575 17.2656,770.5325 Q17.2656,767.4075 18.5781,765.7512 Q19.9063,764.095 22.4063,764.095 Q23.1094,764.095 23.75,764.2512 Q24.4063,764.4075 24.9688,764.7044 L24.9688,767.4231 Q24.3438,766.845 23.75,766.5794 Q23.1563,766.2981 22.5313,766.2981 Q21.1875,766.2981 20.5,767.3762 Q19.8125,768.4387 19.8125,770.5325 Q19.8125,772.6262 20.5,773.7044 Q21.1875,774.7669 22.5313,774.7669 Q23.1563,774.7669 23.75,774.5012 Q24.3438,774.22 24.9688,773.6419 L24.9688,776.3606 Z " fill="#000000"/><text fill="#000000" font-family="sans-serif" font-size="14" lengthAdjust="spacing" textLength="99.0801" x="36" y="775.5667">Administrador</text><line style="stroke:#181818;stroke-width:0.5;" x1="8" x2="137.0801" y1="786.72" y2="786.72"/><line style="stroke:#181818;stroke-width:0.5;" x1="8" x2="137.0801" y1="794.72" y2="794.72"/><ellipse cx="18" cy="808.3684" fill="#84BE84" rx="3" ry="3" style="stroke:#038048;stroke-width:1.0;"/><text fill="#000000" font-family="sans-serif" font-size="14" lengthAdjust="spacing" textLength="75.708" x="27" y="811.7151">contratar()</text><ellipse cx="18" cy="824.6653" fill="#84BE84" rx="3" ry="3" style="stroke:#038048;stroke-width:1.0;"/><text fill="#000000" font-family="sans-serif" font-size="14" lengthAdjust="spacing" textLength="87.5068" x="27" y="828.012">inventariar()</text><ellipse cx="18" cy="840.9622" fill="#84BE84" rx="3" ry="3" style="stroke:#038048;stroke-width:1.0;"/><text fill="#000000" font-family="sans-serif" font-size="14" lengthAdjust="spacing" textLength="71.75" x="27" y="844.3089">despedir()</text></g><!--class Mesa--><g id="elem_Mesa"><rect codeLine="44" fill="#F1F1F1" height="96.8906" id="Mesa" rx="2.5" ry="2.5" style="stroke:#181818;stroke-width:0.5;" width="171.25" x="575.92" y="540.79"/><ellipse cx="639.0123" cy="556.79" fill="#ADD1B2" rx="11" ry="11" style="stroke:#181818;stroke-width:1.0;"/><path d="M641.981,562.4306 Q641.4029,562.7275 640.7623,562.8681 Q640.1217,563.0244 639.4185,563.0244 Q636.9185,563.0244 635.5904,561.3838 Q634.2779,559.7275 634.2779,556.6025 Q634.2779,553.4775 635.5904,551.8213 Q636.9185,550.165 639.4185,550.165 Q640.1217,550.165 640.7623,550.3213 Q641.4185,550.4775 641.981,550.7744 L641.981,553.4931 Q641.356,552.915 640.7623,552.6494 Q640.1685,552.3681 639.5435,552.3681 Q638.1998,552.3681 637.5123,553.4463 Q636.8248,554.5088 636.8248,556.6025 Q636.8248,558.6963 637.5123,559.7744 Q638.1998,560.8369 639.5435,560.8369 Q640.1685,560.8369 640.7623,560.5713 Q641.356,560.29 641.981,559.7119 L641.981,562.4306 Z " fill="#000000"/><text fill="#000000" font-family="sans-serif" font-size="14" lengthAdjust="spacing" textLength="36.5654" x="659.5123" y="561.6367">Mesa</text><line style="stroke:#181818;stroke-width:0.5;" x1="576.92" x2="746.17" y1="572.79" y2="572.79"/><rect fill="none" height="6" style="stroke:#C82930;stroke-width:1.0;" width="6" x="583.92" y="583.4384"/><text fill="#000000" font-family="sans-serif" font-size="14" lengthAdjust="spacing" textLength="142.543" x="595.92" y="589.7851">capacidad_personas</text><rect fill="none" height="6" style="stroke:#C82930;stroke-width:1.0;" width="6" x="583.92" y="599.7353"/><text fill="#000000" font-family="sans-serif" font-size="14" lengthAdjust="spacing" textLength="107.3242" x="595.92" y="606.082">esta_reservado</text><line style="stroke:#181818;stroke-width:0.5;" x1="576.92" x2="746.17" y1="613.3838" y2="613.3838"/><ellipse cx="586.92" cy="627.0322" fill="#84BE84" rx="3" ry="3" style="stroke:#038048;stroke-width:1.0;"/><text fill="#000000" font-family="sans-serif" font-size="14" lengthAdjust="spacing" textLength="145.25" x="595.92" y="630.3789">entregarCapacidad()</text></g><!--class Bodega--><g id="elem_Bodega"><rect codeLine="50" fill="#F1F1F1" height="96.8906" id="Bodega" rx="2.5" ry="2.5" style="stroke:#181818;stroke-width:0.5;" width="172.8633" x="863.11" y="318.71"/><ellipse cx="918.7238" cy="334.71" fill="#ADD1B2" rx="11" ry="11" style="stroke:#181818;stroke-width:1.0;"/><path d="M921.6925,340.3506 Q921.1144,340.6475 920.4738,340.7881 Q919.8331,340.9444 919.13,340.9444 Q916.63,340.9444 915.3019,339.3037 Q913.9894,337.6475 913.9894,334.5225 Q913.9894,331.3975 915.3019,329.7412 Q916.63,328.085 919.13,328.085 Q919.8331,328.085 920.4738,328.2412 Q921.13,328.3975 921.6925,328.6944 L921.6925,331.4131 Q921.0675,330.835 920.4738,330.5694 Q919.88,330.2881 919.255,330.2881 Q917.9113,330.2881 917.2238,331.3662 Q916.5363,332.4287 916.5363,334.5225 Q916.5363,336.6162 917.2238,337.6944 Q917.9113,338.7569 919.255,338.7569 Q919.88,338.7569 920.4738,338.4912 Q921.0675,338.21 921.6925,337.6319 L921.6925,340.3506 Z " fill="#000000"/><text fill="#000000" font-family="sans-serif" font-size="14" lengthAdjust="spacing" textLength="53.1357" x="939.2238" y="339.5567">Bodega</text><line style="stroke:#181818;stroke-width:0.5;" x1="864.11" x2="1034.9733" y1="350.71" y2="350.71"/><rect fill="none" height="6" style="stroke:#C82930;stroke-width:1.0;" width="6" x="871.11" y="361.3584"/><text fill="#000000" font-family="sans-serif" font-size="14" lengthAdjust="spacing" textLength="71.6816" x="883.11" y="367.7051">capacidad</text><line style="stroke:#181818;stroke-width:0.5;" x1="864.11" x2="1034.9733" y1="375.0069" y2="375.0069"/><ellipse cx="874.11" cy="388.6553" fill="#84BE84" rx="3" ry="3" style="stroke:#038048;stroke-width:1.0;"/><text fill="#000000" font-family="sans-serif" font-size="14" lengthAdjust="spacing" textLength="146.8633" x="883.11" y="392.002">guardarIngrediente()</text><ellipse cx="874.11" cy="404.9522" fill="#84BE84" rx="3" ry="3" style="stroke:#038048;stroke-width:1.0;"/><text fill="#000000" font-family="sans-serif" font-size="14" lengthAdjust="spacing" textLength="128.8232" x="883.11" y="408.2989">botarIngrediente()</text></g><!--class Plato--><g id="elem_Plato"><rect codeLine="56" fill="#F1F1F1" height="113.1875" id="Plato" rx="2.5" ry="2.5" style="stroke:#181818;stroke-width:0.5;" width="114.2246" x="782.43" y="532.64"/><ellipse cx="818.6965" cy="548.64" fill="#ADD1B2" rx="11" ry="11" style="stroke:#181818;stroke-width:1.0;"/><path d="M821.6652,554.2806 Q821.0871,554.5775 820.4465,554.7181 Q819.8058,554.8744 819.1027,554.8744 Q816.6027,554.8744 815.2746,553.2338 Q813.9621,551.5775 813.9621,548.4525 Q813.9621,545.3275 815.2746,543.6713 Q816.6027,542.015 819.1027,542.015 Q819.8058,542.015 820.4465,542.1713 Q821.1027,542.3275 821.6652,542.6244 L821.6652,545.3431 Q821.0402,544.765 820.4465,544.4994 Q819.8527,544.2181 819.2277,544.2181 Q817.884,544.2181 817.1965,545.2963 Q816.509,546.3588 816.509,548.4525 Q816.509,550.5463 817.1965,551.6244 Q817.884,552.6869 819.2277,552.6869 Q819.8527,552.6869 820.4465,552.4213 Q821.0402,552.14 821.6652,551.5619 L821.6652,554.2806 Z " fill="#000000"/><text fill="#000000" font-family="sans-serif" font-size="14" lengthAdjust="spacing" textLength="34.9658" x="837.4223" y="553.4867">Plato</text><line style="stroke:#181818;stroke-width:0.5;" x1="783.43" x2="895.6546" y1="564.64" y2="564.64"/><rect fill="none" height="6" style="stroke:#C82930;stroke-width:1.0;" width="6" x="790.43" y="575.2884"/><text fill="#000000" font-family="sans-serif" font-size="14" lengthAdjust="spacing" textLength="54.332" x="802.43" y="581.6351">nombre</text><rect fill="none" height="6" style="stroke:#C82930;stroke-width:1.0;" width="6" x="790.43" y="591.5853"/><text fill="#000000" font-family="sans-serif" font-size="14" lengthAdjust="spacing" textLength="80.0488" x="802.43" y="597.932">descripcion</text><rect fill="none" height="6" style="stroke:#C82930;stroke-width:1.0;" width="6" x="790.43" y="607.8822"/><text fill="#000000" font-family="sans-serif" font-size="14" lengthAdjust="spacing" textLength="35.0752" x="802.43" y="614.2289">valor</text><rect fill="none" height="6" style="stroke:#C82930;stroke-width:1.0;" width="6" x="790.43" y="624.1791"/><text fill="#000000" font-family="sans-serif" font-size="14" lengthAdjust="spacing" textLength="88.2246" x="802.43" y="630.5257">tiempo_prep</text><line style="stroke:#181818;stroke-width:0.5;" x1="783.43" x2="895.6546" y1="637.8275" y2="637.8275"/></g><!--class Ingrediente--><g id="elem_Ingrediente"><rect codeLine="63" fill="#F1F1F1" height="129.4844" id="Ingrediente" rx="2.5" ry="2.5" style="stroke:#181818;stroke-width:0.5;" width="158.1182" x="815.48" y="738.43"/><ellipse cx="850.9528" cy="754.43" fill="#ADD1B2" rx="11" ry="11" style="stroke:#181818;stroke-width:1.0;"/><path d="M853.9216,760.0706 Q853.3434,760.3675 852.7028,760.5081 Q852.0622,760.6644 851.3591,760.6644 Q848.8591,760.6644 847.5309,759.0238 Q846.2184,757.3675 846.2184,754.2425 Q846.2184,751.1175 847.5309,749.4613 Q848.8591,747.805 851.3591,747.805 Q852.0622,747.805 852.7028,747.9613 Q853.3591,748.1175 853.9216,748.4144 L853.9216,751.1331 Q853.2966,750.555 852.7028,750.2894 Q852.1091,750.0081 851.4841,750.0081 Q850.1403,750.0081 849.4528,751.0863 Q848.7653,752.1488 848.7653,754.2425 Q848.7653,756.3363 849.4528,757.4144 Q850.1403,758.4769 851.4841,758.4769 Q852.1091,758.4769 852.7028,758.2113 Q853.2966,757.93 853.9216,757.3519 L853.9216,760.0706 Z " fill="#000000"/><text fill="#000000" font-family="sans-serif" font-size="14" lengthAdjust="spacing" textLength="80.623" x="869.5023" y="759.2767">Ingrediente</text><line style="stroke:#181818;stroke-width:0.5;" x1="816.48" x2="972.5982" y1="770.43" y2="770.43"/><rect fill="none" height="6" style="stroke:#C82930;stroke-width:1.0;" width="6" x="823.48" y="781.0784"/><text fill="#000000" font-family="sans-serif" font-size="14" lengthAdjust="spacing" textLength="54.332" x="835.48" y="787.4251">nombre</text><rect fill="none" height="6" style="stroke:#C82930;stroke-width:1.0;" width="6" x="823.48" y="797.3753"/><text fill="#000000" font-family="sans-serif" font-size="14" lengthAdjust="spacing" textLength="37.1533" x="835.48" y="803.722">stock</text><rect fill="none" height="6" style="stroke:#C82930;stroke-width:1.0;" width="6" x="823.48" y="813.6722"/><text fill="#000000" font-family="sans-serif" font-size="14" lengthAdjust="spacing" textLength="98.8135" x="835.48" y="820.0189">fecha_compra</text><rect fill="none" height="6" style="stroke:#C82930;stroke-width:1.0;" width="6" x="823.48" y="829.9691"/><text fill="#000000" font-family="sans-serif" font-size="14" lengthAdjust="spacing" textLength="132.1182" x="835.48" y="836.3157">fecha_vencimiento</text><line style="stroke:#181818;stroke-width:0.5;" x1="816.48" x2="972.5982" y1="843.6175" y2="843.6175"/><ellipse cx="826.48" cy="857.2659" fill="#84BE84" rx="3" ry="3" style="stroke:#038048;stroke-width:1.0;"/><text fill="#000000" font-family="sans-serif" font-size="14" lengthAdjust="spacing" textLength="58.7617" x="835.48" y="860.6126">vencer()</text></g><!--class Empleado--><g id="elem_Empleado"><rect codeLine="71" fill="#F1F1F1" height="178.375" id="Empleado" rx="2.5" ry="2.5" style="stroke:#181818;stroke-width:0.5;" width="204.2744" x="102.4" y="500.05"/><ellipse cx="165.3351" cy="516.05" fill="#ADD1B2" rx="11" ry="11" style="stroke:#181818;stroke-width:1.0;"/><path d="M168.3038,521.6906 Q167.7257,521.9875 167.0851,522.1281 Q166.4444,522.2844 165.7413,522.2844 Q163.2413,522.2844 161.9132,520.6438 Q160.6007,518.9875 160.6007,515.8625 Q160.6007,512.7375 161.9132,511.0812 Q163.2413,509.425 165.7413,509.425 Q166.4444,509.425 167.0851,509.5812 Q167.7413,509.7375 168.3038,510.0344 L168.3038,512.7531 Q167.6788,512.175 167.0851,511.9094 Q166.4913,511.6281 165.8663,511.6281 Q164.5226,511.6281 163.8351,512.7063 Q163.1476,513.7688 163.1476,515.8625 Q163.1476,517.9563 163.8351,519.0344 Q164.5226,520.0969 165.8663,520.0969 Q166.4913,520.0969 167.0851,519.8313 Q167.6788,519.55 168.3038,518.9719 L168.3038,521.6906 Z " fill="#000000"/><text fill="#000000" font-family="sans-serif" font-size="14" lengthAdjust="spacing" textLength="69.9043" x="185.8351" y="520.8967">Empleado</text><line style="stroke:#181818;stroke-width:0.5;" x1="103.4" x2="305.6744" y1="532.05" y2="532.05"/><rect fill="none" height="6" style="stroke:#C82930;stroke-width:1.0;" width="6" x="110.4" y="542.6984"/><text fill="#000000" font-family="sans-serif" font-size="14" lengthAdjust="spacing" textLength="133.7451" x="122.4" y="549.0451">fecha_contratacion</text><rect fill="none" height="6" style="stroke:#C82930;stroke-width:1.0;" width="6" x="110.4" y="558.9953"/><text fill="#000000" font-family="sans-serif" font-size="14" lengthAdjust="spacing" textLength="46.1221" x="122.4" y="565.342">sueldo</text><rect fill="none" height="6" style="stroke:#C82930;stroke-width:1.0;" width="6" x="110.4" y="575.2922"/><text fill="#000000" font-family="sans-serif" font-size="14" lengthAdjust="spacing" textLength="22.3945" x="122.4" y="581.6389">afp</text><rect fill="none" height="6" style="stroke:#C82930;stroke-width:1.0;" width="6" x="110.4" y="591.5891"/><text fill="#000000" font-family="sans-serif" font-size="14" lengthAdjust="spacing" textLength="43.0186" x="122.4" y="597.9357">isapre</text><rect fill="none" height="6" style="stroke:#C82930;stroke-width:1.0;" width="6" x="110.4" y="607.8859"/><text fill="#000000" font-family="sans-serif" font-size="14" lengthAdjust="spacing" textLength="49.9844" x="122.4" y="614.2326">horario</text><line style="stroke:#181818;stroke-width:0.5;" x1="103.4" x2="305.6744" y1="621.5344" y2="621.5344"/><ellipse cx="113.4" cy="635.1828" fill="#84BE84" rx="3" ry="3" style="stroke:#038048;stroke-width:1.0;"/><text fill="#000000" font-family="sans-serif" font-size="14" lengthAdjust="spacing" textLength="77.834" x="122.4" y="638.5295">renunciar()</text><ellipse cx="113.4" cy="651.4797" fill="#84BE84" rx="3" ry="3" style="stroke:#038048;stroke-width:1.0;"/><text fill="#000000" font-family="sans-serif" font-size="14" lengthAdjust="spacing" textLength="145.3389" x="122.4" y="654.8264">solicitarVacaciones()</text><ellipse cx="113.4" cy="667.7766" fill="#84BE84" rx="3" ry="3" style="stroke:#038048;stroke-width:1.0;"/><text fill="#000000" font-family="sans-serif" font-size="14" lengthAdjust="spacing" textLength="178.2744" x="122.4" y="671.1232">entregarLicenciaMedica()</text></g><!--class Cliente--><g id="elem_Cliente"><rect codeLine="82" fill="#F1F1F1" height="96.8906" id="Cliente" rx="2.5" ry="2.5" style="stroke:#181818;stroke-width:0.5;" width="128.0469" x="341.52" y="540.79"/><ellipse cx="377.6265" cy="556.79" fill="#ADD1B2" rx="11" ry="11" style="stroke:#181818;stroke-width:1.0;"/><path d="M380.5952,562.4306 Q380.0171,562.7275 379.3765,562.8681 Q378.7359,563.0244 378.0327,563.0244 Q375.5327,563.0244 374.2046,561.3838 Q372.8921,559.7275 372.8921,556.6025 Q372.8921,553.4775 374.2046,551.8213 Q375.5327,550.165 378.0327,550.165 Q378.7359,550.165 379.3765,550.3213 Q380.0327,550.4775 380.5952,550.7744 L380.5952,553.4931 Q379.9702,552.915 379.3765,552.6494 Q378.7827,552.3681 378.1577,552.3681 Q376.814,552.3681 376.1265,553.4463 Q375.439,554.5088 375.439,556.6025 Q375.439,558.6963 376.1265,559.7744 Q376.814,560.8369 378.1577,560.8369 Q378.7827,560.8369 379.3765,560.5713 Q379.9702,560.29 380.5952,559.7119 L380.5952,562.4306 Z " fill="#000000"/><text fill="#000000" font-family="sans-serif" font-size="14" lengthAdjust="spacing" textLength="49.1436" x="396.3168" y="561.6367">Cliente</text><line style="stroke:#181818;stroke-width:0.5;" x1="342.52" x2="468.5669" y1="572.79" y2="572.79"/><rect fill="none" height="6" style="stroke:#C82930;stroke-width:1.0;" width="6" x="349.52" y="583.4384"/><text fill="#000000" font-family="sans-serif" font-size="14" lengthAdjust="spacing" textLength="102.0469" x="361.52" y="589.7851">puntos_cliente</text><line style="stroke:#181818;stroke-width:0.5;" x1="342.52" x2="468.5669" y1="597.0869" y2="597.0869"/><ellipse cx="352.52" cy="610.7353" fill="#84BE84" rx="3" ry="3" style="stroke:#038048;stroke-width:1.0;"/><text fill="#000000" font-family="sans-serif" font-size="14" lengthAdjust="spacing" textLength="46.9561" x="361.52" y="614.082">pedir()</text><ellipse cx="352.52" cy="627.0322" fill="#84BE84" rx="3" ry="3" style="stroke:#038048;stroke-width:1.0;"/><text fill="#000000" font-family="sans-serif" font-size="14" lengthAdjust="spacing" textLength="69.5762" x="361.52" y="630.3789">reservar()</text></g><!--class Usuario--><g id="elem_Usuario"><rect codeLine="88" fill="#F1F1F1" height="145.7813" id="Usuario" rx="2.5" ry="2.5" style="stroke:#181818;stroke-width:0.5;" width="174.3467" x="307.37" y="294.27"/><ellipse cx="363.6913" cy="310.27" fill="#ADD1B2" rx="11" ry="11" style="stroke:#181818;stroke-width:1.0;"/><path d="M366.66,315.9106 Q366.0819,316.2075 365.4413,316.3481 Q364.8007,316.5044 364.0975,316.5044 Q361.5975,316.5044 360.2694,314.8638 Q358.9569,313.2075 358.9569,310.0825 Q358.9569,306.9575 360.2694,305.3013 Q361.5975,303.645 364.0975,303.645 Q364.8007,303.645 365.4413,303.8013 Q366.0975,303.9575 366.66,304.2544 L366.66,306.9731 Q366.035,306.395 365.4413,306.1294 Q364.8475,305.8481 364.2225,305.8481 Q362.8788,305.8481 362.1913,306.9263 Q361.5038,307.9888 361.5038,310.0825 Q361.5038,312.1763 362.1913,313.2544 Q362.8788,314.3169 364.2225,314.3169 Q364.8475,314.3169 365.4413,314.0513 Q366.035,313.77 366.66,313.1919 L366.66,315.9106 Z " fill="#000000"/><text fill="#000000" font-family="sans-serif" font-size="14" lengthAdjust="spacing" textLength="53.2041" x="384.1913" y="315.1167">Usuario</text><line style="stroke:#181818;stroke-width:0.5;" x1="308.37" x2="480.7167" y1="326.27" y2="326.27"/><rect fill="none" height="6" style="stroke:#C82930;stroke-width:1.0;" width="6" x="315.37" y="336.9184"/><text fill="#000000" font-family="sans-serif" font-size="14" lengthAdjust="spacing" textLength="54.332" x="327.37" y="343.2651">nombre</text><rect fill="none" height="6" style="stroke:#C82930;stroke-width:1.0;" width="6" x="315.37" y="353.2153"/><text fill="#000000" font-family="sans-serif" font-size="14" lengthAdjust="spacing" textLength="44.9531" x="327.37" y="359.562">correo</text><rect fill="none" height="6" style="stroke:#C82930;stroke-width:1.0;" width="6" x="315.37" y="369.5122"/><text fill="#000000" font-family="sans-serif" font-size="14" lengthAdjust="spacing" textLength="57.5381" x="327.37" y="375.8589">telefono</text><rect fill="none" height="6" style="stroke:#C82930;stroke-width:1.0;" width="6" x="315.37" y="385.8091"/><text fill="#000000" font-family="sans-serif" font-size="14" lengthAdjust="spacing" textLength="113.1621" x="327.37" y="392.1557">nombre_usuario</text><rect fill="none" height="6" style="stroke:#C82930;stroke-width:1.0;" width="6" x="315.37" y="402.1059"/><text fill="#000000" font-family="sans-serif" font-size="14" lengthAdjust="spacing" textLength="78.3193" x="327.37" y="408.4526">contrasena</text><line style="stroke:#181818;stroke-width:0.5;" x1="308.37" x2="480.7167" y1="415.7544" y2="415.7544"/><ellipse cx="318.37" cy="429.4028" fill="#84BE84" rx="3" ry="3" style="stroke:#038048;stroke-width:1.0;"/><text fill="#000000" font-family="sans-serif" font-size="14" lengthAdjust="spacing" textLength="148.3467" x="327.37" y="432.7495">cambiarContrasena()</text></g><!--class Reserva--><g id="elem_Reserva"><rect codeLine="98" fill="#F1F1F1" height="113.1875" id="Reserva" rx="2.5" ry="2.5" style="stroke:#181818;stroke-width:0.5;" width="161.9395" x="1070.57" y="310.57"/><ellipse cx="1118.8556" cy="326.57" fill="#ADD1B2" rx="11" ry="11" style="stroke:#181818;stroke-width:1.0;"/><path d="M1121.8244,332.2106 Q1121.2463,332.5075 1120.6056,332.6481 Q1119.965,332.8044 1119.2619,332.8044 Q1116.7619,332.8044 1115.4338,331.1637 Q1114.1213,329.5075 1114.1213,326.3825 Q1114.1213,323.2575 1115.4338,321.6012 Q1116.7619,319.945 1119.2619,319.945 Q1119.965,319.945 1120.6056,320.1012 Q1121.2619,320.2575 1121.8244,320.5544 L1121.8244,323.2731 Q1121.1994,322.695 1120.6056,322.4294 Q1120.0119,322.1481 1119.3869,322.1481 Q1118.0431,322.1481 1117.3556,323.2262 Q1116.6681,324.2887 1116.6681,326.3825 Q1116.6681,328.4762 1117.3556,329.5544 Q1118.0431,330.6169 1119.3869,330.6169 Q1120.0119,330.6169 1120.6056,330.3512 Q1121.1994,330.07 1121.8244,329.4919 L1121.8244,332.2106 Z " fill="#000000"/><text fill="#000000" font-family="sans-serif" font-size="14" lengthAdjust="spacing" textLength="56.8682" x="1139.3556" y="331.4167">Reserva</text><line style="stroke:#181818;stroke-width:0.5;" x1="1071.57" x2="1231.5095" y1="342.57" y2="342.57"/><rect fill="none" height="6" style="stroke:#C82930;stroke-width:1.0;" width="6" x="1078.57" y="353.2184"/><text fill="#000000" font-family="sans-serif" font-size="14" lengthAdjust="spacing" textLength="132.1934" x="1090.57" y="359.5651">fecha_hora_pedido</text><rect fill="none" height="6" style="stroke:#C82930;stroke-width:1.0;" width="6" x="1078.57" y="369.5153"/><text fill="#000000" font-family="sans-serif" font-size="14" lengthAdjust="spacing" textLength="135.9395" x="1090.57" y="375.862">fecha_hora_cuando</text><rect fill="none" height="6" style="stroke:#C82930;stroke-width:1.0;" width="6" x="1078.57" y="385.8122"/><text fill="#000000" font-family="sans-serif" font-size="14" lengthAdjust="spacing" textLength="125.9863" x="1090.57" y="392.1589">cantidad_pesonas</text><rect fill="none" height="6" style="stroke:#C82930;stroke-width:1.0;" width="6" x="1078.57" y="402.1091"/><text fill="#000000" font-family="sans-serif" font-size="14" lengthAdjust="spacing" textLength="86.96" x="1090.57" y="408.4557">comentarios</text><line style="stroke:#181818;stroke-width:0.5;" x1="1071.57" x2="1231.5095" y1="415.7575" y2="415.7575"/></g><!--link Restaurante to Pedido--><g id="link_Restaurante_Pedido"><path codeLine="105" d="M711.59,210.61 C690.15,240.92 673.5411,264.3941 653.7511,292.3641 " fill="none" id="Restaurante-to-Pedido" style="stroke:#181818;stroke-width:1.0;"/><polygon fill="#181818" points="646.82,302.16,653.5508,299.5724,653.7511,292.3641,647.0202,294.9517,646.82,302.16" style="stroke:#181818;stroke-width:1.0;"/></g><!--link Restaurante to Mesa--><g id="link_Restaurante_Mesa"><path codeLine="106" d="M751.64,234.43 C738.76,295.52 721.83,372.17 704.54,440.05 C695.94,473.8 688.4458,499.9884 679.7458,528.9184 " fill="none" id="Restaurante-to-Mesa" style="stroke:#181818;stroke-width:1.0;"/><polygon fill="#181818" points="676.29,540.41,681.8485,535.8161,679.7458,528.9184,674.1874,533.5122,676.29,540.41" style="stroke:#181818;stroke-width:1.0;"/></g><!--link Restaurante to Bodega--><g id="link_Restaurante_Bodega"><path codeLine="107" d="M837.47,209.57 C863.73,246.26 886.2259,277.6918 908.3559,308.6118 " fill="none" id="Restaurante-to-Bodega" style="stroke:#181818;stroke-width:1.0;"/><polygon fill="#181818" points="915.34,318.37,915.1007,311.1629,908.3559,308.6118,908.5952,315.8189,915.34,318.37" style="stroke:#181818;stroke-width:1.0;"/></g><!--link Restaurante to Plato--><g id="link_Restaurante_Plato"><path codeLine="108" d="M790.27,234.59 C803.39,328.72 819.8531,446.9549 830.0731,520.2649 " fill="none" id="Restaurante-to-Plato" style="stroke:#181818;stroke-width:1.0;"/><polygon fill="#181818" points="831.73,532.15,834.8633,525.6552,830.0731,520.2649,826.9399,526.7598,831.73,532.15" style="stroke:#181818;stroke-width:1.0;"/></g><!--link Restaurante to Reserva--><g id="link_Restaurante_Reserva"><path codeLine="109" d="M837.49,158.65 C894.63,192.7 980.82,245.21 1053.54,294.27 C1061.06,299.34 1059.0329,297.7964 1066.7429,303.2664 " fill="none" id="Restaurante-to-Reserva" style="stroke:#181818;stroke-width:1.0;"/><polygon fill="#181818" points="1076.53,310.21,1073.951,303.4758,1066.7429,303.2664,1069.3219,310.0005,1076.53,310.21" style="stroke:#181818;stroke-width:1.0;"/></g><!--link Restaurante to Usuario--><g id="link_Restaurante_Usuario"><path codeLine="110" d="M711.54,159.91 C655.26,194.36 570.78,246.74 498.54,294.27 C493.13,297.83 497.5498,294.8266 491.9698,298.5766 " fill="none" id="Restaurante-to-Usuario" style="stroke:#181818;stroke-width:1.0;"/><polygon fill="#181818" points="482.01,305.27,489.2211,305.2432,491.9698,298.5766,484.7588,298.6033,482.01,305.27" style="stroke:#181818;stroke-width:1.0;"/></g><!--link Bodega to Ingrediente--><g id="link_Bodega_Ingrediente"><path codeLine="112" d="M944.85,416.09 C938.72,477.12 927.24,585.79 914.54,678.43 C911.88,697.83 910.5436,707.0352 907.4336,726.1852 " fill="none" id="Bodega-to-Ingrediente" style="stroke:#181818;stroke-width:1.0;"/><polygon fill="#181818" points="905.51,738.03,910.4201,732.7488,907.4336,726.1852,902.5235,731.4664,905.51,738.03" style="stroke:#181818;stroke-width:1.0;"/></g><!--link Plato to Ingrediente--><g id="link_Plato_Ingrediente"><path codeLine="113" d="M854.06,646.2 C861.38,674.4 867.2742,697.1251 874.8742,726.3951 " fill="none" id="Plato-to-Ingrediente" style="stroke:#181818;stroke-width:1.0;"/><polygon fill="#181818" points="877.89,738.01,880.2537,731.1973,874.8742,726.3951,872.5105,733.2078,877.89,738.01" style="stroke:#181818;stroke-width:1.0;"/></g><!--link Pedido to Cliente--><g id="link_Pedido_Cliente"><path codeLine="114" d="M544.59,432.11 C513.73,466.76 484.2313,499.889 455.9613,531.629 " fill="none" id="Pedido-to-Cliente" style="stroke:#181818;stroke-width:1.0;"/><polygon fill="#181818" points="447.98,540.59,454.9576,538.77,455.9613,531.629,448.9837,533.4491,447.98,540.59" style="stroke:#181818;stroke-width:1.0;"/></g><!--link Pedido to Garzon--><g id="link_Pedido_Garzon"><path codeLine="115" d="M579.33,432.19 C572.25,453.64 564.67,477.76 558.54,500.05 C536.17,581.44 518.0557,664.8716 505.5357,726.3216 " fill="none" id="Pedido-to-Garzon" style="stroke:#181818;stroke-width:1.0;"/><polygon fill="#181818" points="503.14,738.08,508.2573,732.9994,505.5357,726.3216,500.4184,731.4022,503.14,738.08" style="stroke:#181818;stroke-width:1.0;"/></g><!--link Pedido to Mesa--><g id="link_Pedido_Mesa"><path codeLine="116" d="M618.98,432.11 C628.42,466.76 636.7448,497.2722 645.3948,529.0122 " fill="none" id="Pedido-to-Mesa" style="stroke:#181818;stroke-width:1.0;"/><polygon fill="#181818" points="648.55,540.59,650.8316,533.7494,645.3948,529.0122,643.1131,535.8529,648.55,540.59" style="stroke:#181818;stroke-width:1.0;"/></g><!--link Pedido to Plato--><g id="link_Pedido_Plato"><path codeLine="117" d="M687.01,432.4 C712.78,453.05 740.57,476.66 764.54,500.05 C774.75,510.02 777.193,512.1872 786.773,523.1972 " fill="none" id="Pedido-to-Plato" style="stroke:#181818;stroke-width:1.0;"/><polygon fill="#181818" points="794.65,532.25,793.7291,525.0979,786.773,523.1972,787.6939,530.3493,794.65,532.25" style="stroke:#181818;stroke-width:1.0;"/></g><!--reverse link Empleado to Cocinero--><g id="link_Empleado_Cocinero"><path codeLine="119" d="M220.6154,696.6886 C224.0554,719.4886 224.98,725.58 228.09,746.2 " fill="none" id="Empleado-backto-Cocinero" style="stroke:#181818;stroke-width:1.0;"/><polygon fill="none" points="217.93,678.89,214.6825,697.5837,226.5482,695.7934,217.93,678.89" style="stroke:#181818;stroke-width:1.0;"/></g><!--reverse link Empleado to Garzon--><g id="link_Empleado_Garzon"><path codeLine="120" d="M321.4421,676.8667 C353.1821,700.3867 373.36,715.34 403.92,737.98 " fill="none" id="Empleado-backto-Garzon" style="stroke:#181818;stroke-width:1.0;"/><polygon fill="none" points="306.98,666.15,317.8699,681.6874,325.0143,672.046,306.98,666.15" style="stroke:#181818;stroke-width:1.0;"/></g><!--reverse link Empleado to Administrador--><g id="link_Empleado_Administrador"><path codeLine="121" d="M139.8066,694.1705 C123.7066,720.0305 116.23,732.02 102.34,754.33 " fill="none" id="Empleado-backto-Administrador" style="stroke:#181818;stroke-width:1.0;"/><polygon fill="none" points="149.32,678.89,134.7131,690.9994,144.9001,697.3417,149.32,678.89" style="stroke:#181818;stroke-width:1.0;"/></g><!--reverse link Usuario to Empleado--><g id="link_Usuario_Empleado"><path codeLine="122" d="M320.2954,454.1533 C303.9654,473.0633 297.94,480.05 280.97,499.71 " fill="none" id="Usuario-backto-Empleado" style="stroke:#181818;stroke-width:1.0;"/><polygon fill="none" points="332.06,440.53,315.7543,450.2318,324.8365,458.0748,332.06,440.53" style="stroke:#181818;stroke-width:1.0;"/></g><!--reverse link Usuario to Cliente--><g id="link_Usuario_Cliente"><path codeLine="123" d="M399.0583,458.5076 C400.6983,491.3276 401.69,511.26 403.15,540.46 " fill="none" id="Usuario-backto-Cliente" style="stroke:#181818;stroke-width:1.0;"/><polygon fill="none" points="398.16,440.53,393.0658,458.807,405.0509,458.2081,398.16,440.53" style="stroke:#181818;stroke-width:1.0;"/></g><!--SRC=[RLJBRjmm3BpxAtni6_WFUcaNGL6W0O82xTNWqjmDKLaIA7aFVVnxgPTZhtEoDHA7Gsf4D112_vr2X4N0Hkh_T7q_zDRDPw7yEx4G8ZkRLxB4_5t4Z1wkR24lNvp029uaAiqhWaoYD4EFu4Tqo9R4XRoFJdTS_erawE9iMZpqS1QMT-_pFseqfCM_hiEiz9acdbmLEJiR2yE5y0N6ab88LhMfhgaScJNI9Sab3S9yPf37V62RuLHLrXmg8VA5CNDIgAoUaC7m15Cv1D9eK_HUyXUGtyusEergR3aWkXcaL5MBDePkTv1GPBd38F1LCprH0Bq-aXjiatwQPhOSecXrehcJCgkhcBKzz6nlP7N1TJsbcYRU2K_KgsolahNSKQyuE0jXRUye9VjK6g2iGbUGKulOCdvsa-xTS-Quwm8oWNorLr4ToaArphEBz_2h6mn4zuPZAQ2mNrrm0-EaE8rfzke28V_AiY4_SeNeyDV6O-XcNnrU0EqZyfoYImFIcdPzV9oz8LXTstZATQmYmqAcMXKkFdyvWAyoahM5NNM3NJGdj5SId65axT9FQ3QjE-qolZ4cbV2aPUBE9oUphTilMaKOiO2PehcY9CutlIlkHrYIi6FZtdxVxSYubBXwDFKYK9ubwzCyhMZ9rvtQh4eYDE7ksVlyDlOOBc0pXZhPgdkBULFEkJm07KTAlfs0m_2Xpfa3d9x40IokFb8aSnxGAl-0rpvsNNqZ6TmuiojUFy9b82QutkKMAhDdY-GADkkYibiz-l7lCAmpy0wkR7jmDscwPeUyrGxkqIhpFm00]--></g></svg>