<svg xmlns="http://www.w3.org/2000/svg" xmlns:xlink="http://www.w3.org/1999/xlink" contentStyleType="text/css" height="1031px" preserveAspectRatio="none" style="width:904px;height:1031px;background:#FFFFFF;" version="1.1" viewBox="0 0 904 1031" width="904px" zoomAndPan="magnify"><defs/><g><!--class Restuarante--><g id="elem_Restuarante"><rect codeLine="1" fill="#F1F1F1" height="210.9688" id="Restuarante" rx="2.5" ry="2.5" style="stroke:#181818;stroke-width:0.5;" width="125.3057" x="480.51" y="7"/><ellipse cx="498.8485" cy="23" fill="#ADD1B2" rx="11" ry="11" style="stroke:#181818;stroke-width:1.0;"/><path d="M501.8173,28.6406 Q501.2392,28.9375 500.5985,29.0781 Q499.9579,29.2344 499.2548,29.2344 Q496.7548,29.2344 495.4267,27.5938 Q494.1142,25.9375 494.1142,22.8125 Q494.1142,19.6875 495.4267,18.0313 Q496.7548,16.375 499.2548,16.375 Q499.9579,16.375 500.5985,16.5313 Q501.2548,16.6875 501.8173,16.9844 L501.8173,19.7031 Q501.1923,19.125 500.5985,18.8594 Q500.0048,18.5781 499.3798,18.5781 Q498.036,18.5781 497.3485,19.6563 Q496.661,20.7188 496.661,22.8125 Q496.661,24.9063 497.3485,25.9844 Q498.036,27.0469 499.3798,27.0469 Q500.0048,27.0469 500.5985,26.7813 Q501.1923,26.5 501.8173,25.9219 L501.8173,28.6406 Z " fill="#000000"/><text fill="#000000" font-family="sans-serif" font-size="14" lengthAdjust="spacing" textLength="85.8867" x="513.5904" y="27.8467">Restuarante</text><line style="stroke:#181818;stroke-width:0.5;" x1="481.51" x2="604.8157" y1="39" y2="39"/><rect fill="none" height="6" style="stroke:#C82930;stroke-width:1.0;" width="6" x="488.51" y="49.6484"/><text fill="#000000" font-family="sans-serif" font-size="14" lengthAdjust="spacing" textLength="54.332" x="500.51" y="55.9951">nombre</text><rect fill="none" height="6" style="stroke:#C82930;stroke-width:1.0;" width="6" x="488.51" y="65.9453"/><text fill="#000000" font-family="sans-serif" font-size="14" lengthAdjust="spacing" textLength="71.5654" x="500.51" y="72.292">direcccion</text><rect fill="none" height="6" style="stroke:#C82930;stroke-width:1.0;" width="6" x="488.51" y="82.2422"/><text fill="#000000" font-family="sans-serif" font-size="14" lengthAdjust="spacing" textLength="20.1182" x="500.51" y="88.5889">rut</text><rect fill="none" height="6" style="stroke:#C82930;stroke-width:1.0;" width="6" x="488.51" y="98.5391"/><text fill="#000000" font-family="sans-serif" font-size="14" lengthAdjust="spacing" textLength="73.2129" x="500.51" y="104.8857">url_pagina</text><rect fill="none" height="6" style="stroke:#C82930;stroke-width:1.0;" width="6" x="488.51" y="114.8359"/><text fill="#000000" font-family="sans-serif" font-size="14" lengthAdjust="spacing" textLength="99.3057" x="500.51" y="121.1826">hora_apertura</text><rect fill="none" height="6" style="stroke:#C82930;stroke-width:1.0;" width="6" x="488.51" y="131.1328"/><text fill="#000000" font-family="sans-serif" font-size="14" lengthAdjust="spacing" textLength="79.0986" x="500.51" y="137.4795">hora_cierre</text><rect fill="none" height="6" style="stroke:#C82930;stroke-width:1.0;" width="6" x="488.51" y="147.4297"/><text fill="#000000" font-family="sans-serif" font-size="14" lengthAdjust="spacing" textLength="44.9531" x="500.51" y="153.7764">correo</text><rect fill="none" height="6" style="stroke:#C82930;stroke-width:1.0;" width="6" x="488.51" y="163.7266"/><text fill="#000000" font-family="sans-serif" font-size="14" lengthAdjust="spacing" textLength="57.5381" x="500.51" y="170.0732">telefono</text><line style="stroke:#181818;stroke-width:0.5;" x1="481.51" x2="604.8157" y1="177.375" y2="177.375"/><ellipse cx="491.51" cy="191.0234" fill="#84BE84" rx="3" ry="3" style="stroke:#038048;stroke-width:1.0;"/><text fill="#000000" font-family="sans-serif" font-size="14" lengthAdjust="spacing" textLength="43.791" x="500.51" y="194.3701">abrir()</text><ellipse cx="491.51" cy="207.3203" fill="#84BE84" rx="3" ry="3" style="stroke:#038048;stroke-width:1.0;"/><text fill="#000000" font-family="sans-serif" font-size="14" lengthAdjust="spacing" textLength="53.0811" x="500.51" y="210.667">cerrar()</text></g><!--class Usuario--><g id="elem_Usuario"><rect codeLine="14" fill="#F1F1F1" height="145.7813" id="Usuario" rx="2.5" ry="2.5" style="stroke:#181818;stroke-width:0.5;" width="174.3467" x="84.99" y="879.02"/><ellipse cx="141.3113" cy="895.02" fill="#ADD1B2" rx="11" ry="11" style="stroke:#181818;stroke-width:1.0;"/><path d="M144.28,900.6606 Q143.7019,900.9575 143.0613,901.0981 Q142.4207,901.2544 141.7175,901.2544 Q139.2175,901.2544 137.8894,899.6138 Q136.5769,897.9575 136.5769,894.8325 Q136.5769,891.7075 137.8894,890.0513 Q139.2175,888.395 141.7175,888.395 Q142.4207,888.395 143.0613,888.5513 Q143.7175,888.7075 144.28,889.0044 L144.28,891.7231 Q143.655,891.145 143.0613,890.8794 Q142.4675,890.5981 141.8425,890.5981 Q140.4988,890.5981 139.8113,891.6763 Q139.1238,892.7388 139.1238,894.8325 Q139.1238,896.9263 139.8113,898.0044 Q140.4988,899.0669 141.8425,899.0669 Q142.4675,899.0669 143.0613,898.8013 Q143.655,898.52 144.28,897.9419 L144.28,900.6606 Z " fill="#000000"/><text fill="#000000" font-family="sans-serif" font-size="14" lengthAdjust="spacing" textLength="53.2041" x="161.8113" y="899.8667">Usuario</text><line style="stroke:#181818;stroke-width:0.5;" x1="85.99" x2="258.3367" y1="911.02" y2="911.02"/><rect fill="none" height="6" style="stroke:#C82930;stroke-width:1.0;" width="6" x="92.99" y="921.6684"/><text fill="#000000" font-family="sans-serif" font-size="14" lengthAdjust="spacing" textLength="54.332" x="104.99" y="928.0151">nombre</text><rect fill="none" height="6" style="stroke:#C82930;stroke-width:1.0;" width="6" x="92.99" y="937.9653"/><text fill="#000000" font-family="sans-serif" font-size="14" lengthAdjust="spacing" textLength="44.9531" x="104.99" y="944.312">correo</text><rect fill="none" height="6" style="stroke:#C82930;stroke-width:1.0;" width="6" x="92.99" y="954.2622"/><text fill="#000000" font-family="sans-serif" font-size="14" lengthAdjust="spacing" textLength="57.5381" x="104.99" y="960.6089">telefono</text><rect fill="none" height="6" style="stroke:#C82930;stroke-width:1.0;" width="6" x="92.99" y="970.5591"/><text fill="#000000" font-family="sans-serif" font-size="14" lengthAdjust="spacing" textLength="113.1621" x="104.99" y="976.9057">nombre_usuario</text><rect fill="none" height="6" style="stroke:#C82930;stroke-width:1.0;" width="6" x="92.99" y="986.8559"/><text fill="#000000" font-family="sans-serif" font-size="14" lengthAdjust="spacing" textLength="78.3193" x="104.99" y="993.2026">contrasena</text><line style="stroke:#181818;stroke-width:0.5;" x1="85.99" x2="258.3367" y1="1000.5044" y2="1000.5044"/><ellipse cx="95.99" cy="1014.1528" fill="#84BE84" rx="3" ry="3" style="stroke:#038048;stroke-width:1.0;"/><text fill="#000000" font-family="sans-serif" font-size="14" lengthAdjust="spacing" textLength="148.3467" x="104.99" y="1017.4995">cambiarContrasena()</text></g><!--class Pedido--><g id="elem_Pedido"><rect codeLine="23" fill="#F1F1F1" height="129.4844" id="Pedido" rx="2.5" ry="2.5" style="stroke:#181818;stroke-width:0.5;" width="170.1357" x="320.1" y="277.97"/><ellipse cx="377.2758" cy="293.97" fill="#ADD1B2" rx="11" ry="11" style="stroke:#181818;stroke-width:1.0;"/><path d="M380.2445,299.6106 Q379.6664,299.9075 379.0258,300.0481 Q378.3852,300.2044 377.682,300.2044 Q375.182,300.2044 373.8539,298.5637 Q372.5414,296.9075 372.5414,293.7825 Q372.5414,290.6575 373.8539,289.0012 Q375.182,287.345 377.682,287.345 Q378.3852,287.345 379.0258,287.5012 Q379.682,287.6575 380.2445,287.9544 L380.2445,290.6731 Q379.6195,290.095 379.0258,289.8294 Q378.432,289.5481 377.807,289.5481 Q376.4633,289.5481 375.7758,290.6262 Q375.0883,291.6887 375.0883,293.7825 Q375.0883,295.8762 375.7758,296.9544 Q376.4633,298.0169 377.807,298.0169 Q378.432,298.0169 379.0258,297.7512 Q379.6195,297.47 380.2445,296.8919 L380.2445,299.6106 Z " fill="#000000"/><text fill="#000000" font-family="sans-serif" font-size="14" lengthAdjust="spacing" textLength="47.2842" x="397.7758" y="298.8167">Pedido</text><line style="stroke:#181818;stroke-width:0.5;" x1="321.1" x2="489.2357" y1="309.97" y2="309.97"/><rect fill="none" height="6" style="stroke:#C82930;stroke-width:1.0;" width="6" x="328.1" y="320.6184"/><text fill="#000000" font-family="sans-serif" font-size="14" lengthAdjust="spacing" textLength="45.1309" x="340.1" y="326.9651">monto</text><rect fill="none" height="6" style="stroke:#C82930;stroke-width:1.0;" width="6" x="328.1" y="336.9153"/><text fill="#000000" font-family="sans-serif" font-size="14" lengthAdjust="spacing" textLength="144.1357" x="340.1" y="343.262">fecha_hora_creacion</text><rect fill="none" height="6" style="stroke:#C82930;stroke-width:1.0;" width="6" x="328.1" y="353.2122"/><text fill="#000000" font-family="sans-serif" font-size="14" lengthAdjust="spacing" textLength="47.4277" x="340.1" y="359.5589">estado</text><rect fill="none" height="6" style="stroke:#C82930;stroke-width:1.0;" width="6" x="328.1" y="369.5091"/><text fill="#000000" font-family="sans-serif" font-size="14" lengthAdjust="spacing" textLength="85.5107" x="340.1" y="375.8557">medio_pago</text><line style="stroke:#181818;stroke-width:0.5;" x1="321.1" x2="489.2357" y1="383.1575" y2="383.1575"/><ellipse cx="331.1" cy="396.8059" fill="#84BE84" rx="3" ry="3" style="stroke:#038048;stroke-width:1.0;"/><text fill="#000000" font-family="sans-serif" font-size="14" lengthAdjust="spacing" textLength="115.6094" x="340.1" y="400.1526">cambiarEstado()</text></g><!--class Bodega--><g id="elem_Bodega"><rect codeLine="31" fill="#F1F1F1" height="96.8906" id="Bodega" rx="2.5" ry="2.5" style="stroke:#181818;stroke-width:0.5;" width="172.8633" x="724.73" y="294.27"/><ellipse cx="780.3438" cy="310.27" fill="#ADD1B2" rx="11" ry="11" style="stroke:#181818;stroke-width:1.0;"/><path d="M783.3125,315.9106 Q782.7344,316.2075 782.0938,316.3481 Q781.4531,316.5044 780.75,316.5044 Q778.25,316.5044 776.9219,314.8638 Q775.6094,313.2075 775.6094,310.0825 Q775.6094,306.9575 776.9219,305.3013 Q778.25,303.645 780.75,303.645 Q781.4531,303.645 782.0938,303.8013 Q782.75,303.9575 783.3125,304.2544 L783.3125,306.9731 Q782.6875,306.395 782.0938,306.1294 Q781.5,305.8481 780.875,305.8481 Q779.5313,305.8481 778.8438,306.9263 Q778.1563,307.9888 778.1563,310.0825 Q778.1563,312.1763 778.8438,313.2544 Q779.5313,314.3169 780.875,314.3169 Q781.5,314.3169 782.0938,314.0513 Q782.6875,313.77 783.3125,313.1919 L783.3125,315.9106 Z " fill="#000000"/><text fill="#000000" font-family="sans-serif" font-size="14" lengthAdjust="spacing" textLength="53.1357" x="800.8438" y="315.1167">Bodega</text><line style="stroke:#181818;stroke-width:0.5;" x1="725.73" x2="896.5933" y1="326.27" y2="326.27"/><rect fill="none" height="6" style="stroke:#C82930;stroke-width:1.0;" width="6" x="732.73" y="336.9184"/><text fill="#000000" font-family="sans-serif" font-size="14" lengthAdjust="spacing" textLength="71.6816" x="744.73" y="343.2651">capacidad</text><line style="stroke:#181818;stroke-width:0.5;" x1="725.73" x2="896.5933" y1="350.5669" y2="350.5669"/><ellipse cx="735.73" cy="364.2153" fill="#84BE84" rx="3" ry="3" style="stroke:#038048;stroke-width:1.0;"/><text fill="#000000" font-family="sans-serif" font-size="14" lengthAdjust="spacing" textLength="146.8633" x="744.73" y="367.562">guardarIngrediente()</text><ellipse cx="735.73" cy="380.5122" fill="#84BE84" rx="3" ry="3" style="stroke:#038048;stroke-width:1.0;"/><text fill="#000000" font-family="sans-serif" font-size="14" lengthAdjust="spacing" textLength="128.8232" x="744.73" y="383.8589">botarIngrediente()</text></g><!--class Mesa--><g id="elem_Mesa"><rect codeLine="37" fill="#F1F1F1" height="80.5938" id="Mesa" rx="2.5" ry="2.5" style="stroke:#181818;stroke-width:0.5;" width="171.25" x="447.54" y="483.75"/><ellipse cx="510.6323" cy="499.75" fill="#ADD1B2" rx="11" ry="11" style="stroke:#181818;stroke-width:1.0;"/><path d="M513.601,505.3906 Q513.0229,505.6875 512.3823,505.8281 Q511.7417,505.9844 511.0385,505.9844 Q508.5385,505.9844 507.2104,504.3438 Q505.8979,502.6875 505.8979,499.5625 Q505.8979,496.4375 507.2104,494.7813 Q508.5385,493.125 511.0385,493.125 Q511.7417,493.125 512.3823,493.2813 Q513.0385,493.4375 513.601,493.7344 L513.601,496.4531 Q512.976,495.875 512.3823,495.6094 Q511.7885,495.3281 511.1635,495.3281 Q509.8198,495.3281 509.1323,496.4063 Q508.4448,497.4688 508.4448,499.5625 Q508.4448,501.6563 509.1323,502.7344 Q509.8198,503.7969 511.1635,503.7969 Q511.7885,503.7969 512.3823,503.5313 Q512.976,503.25 513.601,502.6719 L513.601,505.3906 Z " fill="#000000"/><text fill="#000000" font-family="sans-serif" font-size="14" lengthAdjust="spacing" textLength="36.5654" x="531.1323" y="504.5967">Mesa</text><line style="stroke:#181818;stroke-width:0.5;" x1="448.54" x2="617.79" y1="515.75" y2="515.75"/><rect fill="none" height="6" style="stroke:#C82930;stroke-width:1.0;" width="6" x="455.54" y="526.3984"/><text fill="#000000" font-family="sans-serif" font-size="14" lengthAdjust="spacing" textLength="142.543" x="467.54" y="532.7451">capacidad_personas</text><line style="stroke:#181818;stroke-width:0.5;" x1="448.54" x2="617.79" y1="540.0469" y2="540.0469"/><ellipse cx="458.54" cy="553.6953" fill="#84BE84" rx="3" ry="3" style="stroke:#038048;stroke-width:1.0;"/><text fill="#000000" font-family="sans-serif" font-size="14" lengthAdjust="spacing" textLength="145.25" x="467.54" y="557.042">entregarCapacidad()</text></g><!--class Plato--><g id="elem_Plato"><rect codeLine="42" fill="#F1F1F1" height="113.1875" id="Plato" rx="2.5" ry="2.5" style="stroke:#181818;stroke-width:0.5;" width="114.2246" x="654.05" y="467.46"/><ellipse cx="690.3165" cy="483.46" fill="#ADD1B2" rx="11" ry="11" style="stroke:#181818;stroke-width:1.0;"/><path d="M693.2852,489.1006 Q692.7071,489.3975 692.0665,489.5381 Q691.4258,489.6944 690.7227,489.6944 Q688.2227,489.6944 686.8946,488.0537 Q685.5821,486.3975 685.5821,483.2725 Q685.5821,480.1475 686.8946,478.4912 Q688.2227,476.835 690.7227,476.835 Q691.4258,476.835 692.0665,476.9912 Q692.7227,477.1475 693.2852,477.4444 L693.2852,480.1631 Q692.6602,479.585 692.0665,479.3194 Q691.4727,479.0381 690.8477,479.0381 Q689.504,479.0381 688.8165,480.1162 Q688.129,481.1787 688.129,483.2725 Q688.129,485.3662 688.8165,486.4444 Q689.504,487.5069 690.8477,487.5069 Q691.4727,487.5069 692.0665,487.2412 Q692.6602,486.96 693.2852,486.3819 L693.2852,489.1006 Z " fill="#000000"/><text fill="#000000" font-family="sans-serif" font-size="14" lengthAdjust="spacing" textLength="34.9658" x="709.0423" y="488.3067">Plato</text><line style="stroke:#181818;stroke-width:0.5;" x1="655.05" x2="767.2746" y1="499.46" y2="499.46"/><rect fill="none" height="6" style="stroke:#C82930;stroke-width:1.0;" width="6" x="662.05" y="510.1084"/><text fill="#000000" font-family="sans-serif" font-size="14" lengthAdjust="spacing" textLength="54.332" x="674.05" y="516.4551">nombre</text><rect fill="none" height="6" style="stroke:#C82930;stroke-width:1.0;" width="6" x="662.05" y="526.4053"/><text fill="#000000" font-family="sans-serif" font-size="14" lengthAdjust="spacing" textLength="80.0488" x="674.05" y="532.752">descripcion</text><rect fill="none" height="6" style="stroke:#C82930;stroke-width:1.0;" width="6" x="662.05" y="542.7022"/><text fill="#000000" font-family="sans-serif" font-size="14" lengthAdjust="spacing" textLength="35.0752" x="674.05" y="549.0489">valor</text><rect fill="none" height="6" style="stroke:#C82930;stroke-width:1.0;" width="6" x="662.05" y="558.9991"/><text fill="#000000" font-family="sans-serif" font-size="14" lengthAdjust="spacing" textLength="88.2246" x="674.05" y="565.3457">tiempo_prep</text><line style="stroke:#181818;stroke-width:0.5;" x1="655.05" x2="767.2746" y1="572.6475" y2="572.6475"/></g><!--class Ingrediente--><g id="elem_Ingrediente"><rect codeLine="55" fill="#F1F1F1" height="129.4844" id="Ingrediente" rx="2.5" ry="2.5" style="stroke:#181818;stroke-width:0.5;" width="158.1182" x="687.1" y="665.09"/><ellipse cx="722.5728" cy="681.09" fill="#ADD1B2" rx="11" ry="11" style="stroke:#181818;stroke-width:1.0;"/><path d="M725.5416,686.7306 Q724.9634,687.0275 724.3228,687.1681 Q723.6822,687.3244 722.9791,687.3244 Q720.4791,687.3244 719.1509,685.6837 Q717.8384,684.0275 717.8384,680.9025 Q717.8384,677.7775 719.1509,676.1212 Q720.4791,674.465 722.9791,674.465 Q723.6822,674.465 724.3228,674.6212 Q724.9791,674.7775 725.5416,675.0744 L725.5416,677.7931 Q724.9166,677.215 724.3228,676.9494 Q723.7291,676.6681 723.1041,676.6681 Q721.7603,676.6681 721.0728,677.7462 Q720.3853,678.8087 720.3853,680.9025 Q720.3853,682.9962 721.0728,684.0744 Q721.7603,685.1369 723.1041,685.1369 Q723.7291,685.1369 724.3228,684.8712 Q724.9166,684.59 725.5416,684.0119 L725.5416,686.7306 Z " fill="#000000"/><text fill="#000000" font-family="sans-serif" font-size="14" lengthAdjust="spacing" textLength="80.623" x="741.1223" y="685.9367">Ingrediente</text><line style="stroke:#181818;stroke-width:0.5;" x1="688.1" x2="844.2182" y1="697.09" y2="697.09"/><rect fill="none" height="6" style="stroke:#C82930;stroke-width:1.0;" width="6" x="695.1" y="707.7384"/><text fill="#000000" font-family="sans-serif" font-size="14" lengthAdjust="spacing" textLength="54.332" x="707.1" y="714.0851">nombre</text><rect fill="none" height="6" style="stroke:#C82930;stroke-width:1.0;" width="6" x="695.1" y="724.0353"/><text fill="#000000" font-family="sans-serif" font-size="14" lengthAdjust="spacing" textLength="37.1533" x="707.1" y="730.382">stock</text><rect fill="none" height="6" style="stroke:#C82930;stroke-width:1.0;" width="6" x="695.1" y="740.3322"/><text fill="#000000" font-family="sans-serif" font-size="14" lengthAdjust="spacing" textLength="98.8135" x="707.1" y="746.6789">fecha_compra</text><rect fill="none" height="6" style="stroke:#C82930;stroke-width:1.0;" width="6" x="695.1" y="756.6291"/><text fill="#000000" font-family="sans-serif" font-size="14" lengthAdjust="spacing" textLength="132.1182" x="707.1" y="762.9757">fecha_vencimiento</text><line style="stroke:#181818;stroke-width:0.5;" x1="688.1" x2="844.2182" y1="770.2775" y2="770.2775"/><ellipse cx="698.1" cy="783.9259" fill="#84BE84" rx="3" ry="3" style="stroke:#038048;stroke-width:1.0;"/><text fill="#000000" font-family="sans-serif" font-size="14" lengthAdjust="spacing" textLength="58.7617" x="707.1" y="787.2726">vencer()</text></g><!--class Empleado--><g id="elem_Empleado"><rect codeLine="65" fill="#F1F1F1" height="178.375" id="Empleado" rx="2.5" ry="2.5" style="stroke:#181818;stroke-width:0.5;" width="204.2744" x="70.03" y="640.64"/><ellipse cx="132.9651" cy="656.64" fill="#ADD1B2" rx="11" ry="11" style="stroke:#181818;stroke-width:1.0;"/><path d="M135.9338,662.2806 Q135.3557,662.5775 134.7151,662.7181 Q134.0744,662.8744 133.3713,662.8744 Q130.8713,662.8744 129.5432,661.2337 Q128.2307,659.5775 128.2307,656.4525 Q128.2307,653.3275 129.5432,651.6712 Q130.8713,650.015 133.3713,650.015 Q134.0744,650.015 134.7151,650.1712 Q135.3713,650.3275 135.9338,650.6244 L135.9338,653.3431 Q135.3088,652.765 134.7151,652.4994 Q134.1213,652.2181 133.4963,652.2181 Q132.1526,652.2181 131.4651,653.2962 Q130.7776,654.3587 130.7776,656.4525 Q130.7776,658.5462 131.4651,659.6244 Q132.1526,660.6869 133.4963,660.6869 Q134.1213,660.6869 134.7151,660.4212 Q135.3088,660.14 135.9338,659.5619 L135.9338,662.2806 Z " fill="#000000"/><text fill="#000000" font-family="sans-serif" font-size="14" lengthAdjust="spacing" textLength="69.9043" x="153.4651" y="661.4867">Empleado</text><line style="stroke:#181818;stroke-width:0.5;" x1="71.03" x2="273.3044" y1="672.64" y2="672.64"/><rect fill="none" height="6" style="stroke:#C82930;stroke-width:1.0;" width="6" x="78.03" y="683.2884"/><text fill="#000000" font-family="sans-serif" font-size="14" lengthAdjust="spacing" textLength="133.7451" x="90.03" y="689.6351">fecha_contratacion</text><rect fill="none" height="6" style="stroke:#C82930;stroke-width:1.0;" width="6" x="78.03" y="699.5853"/><text fill="#000000" font-family="sans-serif" font-size="14" lengthAdjust="spacing" textLength="46.1221" x="90.03" y="705.932">sueldo</text><rect fill="none" height="6" style="stroke:#C82930;stroke-width:1.0;" width="6" x="78.03" y="715.8822"/><text fill="#000000" font-family="sans-serif" font-size="14" lengthAdjust="spacing" textLength="22.3945" x="90.03" y="722.2289">afp</text><rect fill="none" height="6" style="stroke:#C82930;stroke-width:1.0;" width="6" x="78.03" y="732.1791"/><text fill="#000000" font-family="sans-serif" font-size="14" lengthAdjust="spacing" textLength="43.0186" x="90.03" y="738.5257">isapre</text><rect fill="none" height="6" style="stroke:#C82930;stroke-width:1.0;" width="6" x="78.03" y="748.4759"/><text fill="#000000" font-family="sans-serif" font-size="14" lengthAdjust="spacing" textLength="49.9844" x="90.03" y="754.8226">horario</text><line style="stroke:#181818;stroke-width:0.5;" x1="71.03" x2="273.3044" y1="762.1244" y2="762.1244"/><ellipse cx="81.03" cy="775.7728" fill="#84BE84" rx="3" ry="3" style="stroke:#038048;stroke-width:1.0;"/><text fill="#000000" font-family="sans-serif" font-size="14" lengthAdjust="spacing" textLength="77.834" x="90.03" y="779.1195">renunciar()</text><ellipse cx="81.03" cy="792.0697" fill="#84BE84" rx="3" ry="3" style="stroke:#038048;stroke-width:1.0;"/><text fill="#000000" font-family="sans-serif" font-size="14" lengthAdjust="spacing" textLength="145.3389" x="90.03" y="795.4164">solicitarVacaciones()</text><ellipse cx="81.03" cy="808.3666" fill="#84BE84" rx="3" ry="3" style="stroke:#038048;stroke-width:1.0;"/><text fill="#000000" font-family="sans-serif" font-size="14" lengthAdjust="spacing" textLength="178.2744" x="90.03" y="811.7132">entregarLicenciaMedica()</text></g><!--class Cliente--><g id="elem_Cliente"><rect codeLine="75" fill="#F1F1F1" height="96.8906" id="Cliente" rx="2.5" ry="2.5" style="stroke:#181818;stroke-width:0.5;" width="128.0469" x="320.14" y="681.39"/><ellipse cx="356.2465" cy="697.39" fill="#ADD1B2" rx="11" ry="11" style="stroke:#181818;stroke-width:1.0;"/><path d="M359.2152,703.0306 Q358.6371,703.3275 357.9965,703.4681 Q357.3559,703.6244 356.6527,703.6244 Q354.1527,703.6244 352.8246,701.9837 Q351.5121,700.3275 351.5121,697.2025 Q351.5121,694.0775 352.8246,692.4212 Q354.1527,690.765 356.6527,690.765 Q357.3559,690.765 357.9965,690.9212 Q358.6527,691.0775 359.2152,691.3744 L359.2152,694.0931 Q358.5902,693.515 357.9965,693.2494 Q357.4027,692.9681 356.7777,692.9681 Q355.434,692.9681 354.7465,694.0462 Q354.059,695.1087 354.059,697.2025 Q354.059,699.2962 354.7465,700.3744 Q355.434,701.4369 356.7777,701.4369 Q357.4027,701.4369 357.9965,701.1712 Q358.5902,700.89 359.2152,700.3119 L359.2152,703.0306 Z " fill="#000000"/><text fill="#000000" font-family="sans-serif" font-size="14" lengthAdjust="spacing" textLength="49.1436" x="374.9368" y="702.2367">Cliente</text><line style="stroke:#181818;stroke-width:0.5;" x1="321.14" x2="447.1869" y1="713.39" y2="713.39"/><rect fill="none" height="6" style="stroke:#C82930;stroke-width:1.0;" width="6" x="328.14" y="724.0384"/><text fill="#000000" font-family="sans-serif" font-size="14" lengthAdjust="spacing" textLength="102.0469" x="340.14" y="730.3851">puntos_cliente</text><line style="stroke:#181818;stroke-width:0.5;" x1="321.14" x2="447.1869" y1="737.6869" y2="737.6869"/><ellipse cx="331.14" cy="751.3353" fill="#84BE84" rx="3" ry="3" style="stroke:#038048;stroke-width:1.0;"/><text fill="#000000" font-family="sans-serif" font-size="14" lengthAdjust="spacing" textLength="46.9561" x="340.14" y="754.682">pedir()</text><ellipse cx="331.14" cy="767.6322" fill="#84BE84" rx="3" ry="3" style="stroke:#038048;stroke-width:1.0;"/><text fill="#000000" font-family="sans-serif" font-size="14" lengthAdjust="spacing" textLength="69.5762" x="340.14" y="770.9789">reservar()</text></g><!--class Cocinero--><g id="elem_Cocinero"><rect codeLine="85" fill="#F1F1F1" height="113.1875" id="Cocinero" rx="2.5" ry="2.5" style="stroke:#181818;stroke-width:0.5;" width="127.4727" x="50.43" y="467.46"/><ellipse cx="80.6118" cy="483.46" fill="#ADD1B2" rx="11" ry="11" style="stroke:#181818;stroke-width:1.0;"/><path d="M83.5805,489.1006 Q83.0024,489.3975 82.3618,489.5381 Q81.7212,489.6944 81.018,489.6944 Q78.518,489.6944 77.1899,488.0537 Q75.8774,486.3975 75.8774,483.2725 Q75.8774,480.1475 77.1899,478.4912 Q78.518,476.835 81.018,476.835 Q81.7212,476.835 82.3618,476.9912 Q83.018,477.1475 83.5805,477.4444 L83.5805,480.1631 Q82.9555,479.585 82.3618,479.3194 Q81.768,479.0381 81.143,479.0381 Q79.7993,479.0381 79.1118,480.1162 Q78.4243,481.1787 78.4243,483.2725 Q78.4243,485.3662 79.1118,486.4444 Q79.7993,487.5069 81.143,487.5069 Q81.768,487.5069 82.3618,487.2412 Q82.9555,486.96 83.5805,486.3819 L83.5805,489.1006 Z " fill="#000000"/><text fill="#000000" font-family="sans-serif" font-size="14" lengthAdjust="spacing" textLength="61.7354" x="97.9855" y="488.3067">Cocinero</text><line style="stroke:#181818;stroke-width:0.5;" x1="51.43" x2="176.9027" y1="499.46" y2="499.46"/><rect fill="none" height="6" style="stroke:#C82930;stroke-width:1.0;" width="6" x="58.43" y="510.1084"/><text fill="#000000" font-family="sans-serif" font-size="14" lengthAdjust="spacing" textLength="101.4727" x="70.43" y="516.4551">certificaciones</text><rect fill="none" height="6" style="stroke:#C82930;stroke-width:1.0;" width="6" x="58.43" y="526.4053"/><text fill="#000000" font-family="sans-serif" font-size="14" lengthAdjust="spacing" textLength="87.7051" x="70.43" y="532.752">especialidad</text><rect fill="none" height="6" style="stroke:#C82930;stroke-width:1.0;" width="6" x="58.43" y="542.7022"/><text fill="#000000" font-family="sans-serif" font-size="14" lengthAdjust="spacing" textLength="39.4844" x="70.43" y="549.0489">cargo</text><line style="stroke:#181818;stroke-width:0.5;" x1="51.43" x2="176.9027" y1="556.3506" y2="556.3506"/><ellipse cx="61.43" cy="569.9991" fill="#84BE84" rx="3" ry="3" style="stroke:#038048;stroke-width:1.0;"/><text fill="#000000" font-family="sans-serif" font-size="14" lengthAdjust="spacing" textLength="61.9814" x="70.43" y="573.3457">cocinar()</text></g><!--class Garzon--><g id="elem_Garzon"><rect codeLine="91" fill="#F1F1F1" height="113.1875" id="Garzon" rx="2.5" ry="2.5" style="stroke:#181818;stroke-width:0.5;" width="128.0469" x="213.14" y="467.46"/><ellipse cx="248.8743" cy="483.46" fill="#ADD1B2" rx="11" ry="11" style="stroke:#181818;stroke-width:1.0;"/><path d="M251.843,489.1006 Q251.2649,489.3975 250.6243,489.5381 Q249.9837,489.6944 249.2805,489.6944 Q246.7805,489.6944 245.4524,488.0537 Q244.1399,486.3975 244.1399,483.2725 Q244.1399,480.1475 245.4524,478.4912 Q246.7805,476.835 249.2805,476.835 Q249.9837,476.835 250.6243,476.9912 Q251.2805,477.1475 251.843,477.4444 L251.843,480.1631 Q251.218,479.585 250.6243,479.3194 Q250.0305,479.0381 249.4055,479.0381 Q248.0618,479.0381 247.3743,480.1162 Q246.6868,481.1787 246.6868,483.2725 Q246.6868,485.3662 247.3743,486.4444 Q248.0618,487.5069 249.4055,487.5069 Q250.0305,487.5069 250.6243,487.2412 Q251.218,486.96 251.843,486.3819 L251.843,489.1006 Z " fill="#000000"/><text fill="#000000" font-family="sans-serif" font-size="14" lengthAdjust="spacing" textLength="49.9707" x="267.4819" y="488.3067">Garzon</text><line style="stroke:#181818;stroke-width:0.5;" x1="214.14" x2="340.1869" y1="499.46" y2="499.46"/><rect fill="none" height="6" style="stroke:#C82930;stroke-width:1.0;" width="6" x="221.14" y="510.1084"/><text fill="#000000" font-family="sans-serif" font-size="14" lengthAdjust="spacing" textLength="78.1758" x="233.14" y="516.4551">calificacion</text><line style="stroke:#181818;stroke-width:0.5;" x1="214.14" x2="340.1869" y1="523.7569" y2="523.7569"/><ellipse cx="224.14" cy="537.4053" fill="#84BE84" rx="3" ry="3" style="stroke:#038048;stroke-width:1.0;"/><text fill="#000000" font-family="sans-serif" font-size="14" lengthAdjust="spacing" textLength="100.2354" x="233.14" y="540.752">tomarPedido()</text><ellipse cx="224.14" cy="553.7022" fill="#84BE84" rx="3" ry="3" style="stroke:#038048;stroke-width:1.0;"/><text fill="#000000" font-family="sans-serif" font-size="14" lengthAdjust="spacing" textLength="97.2207" x="233.14" y="557.0489">llevarPedido()</text><ellipse cx="224.14" cy="569.9991" fill="#84BE84" rx="3" ry="3" style="stroke:#038048;stroke-width:1.0;"/><text fill="#000000" font-family="sans-serif" font-size="14" lengthAdjust="spacing" textLength="102.0469" x="233.14" y="573.3457">retirarPedido()</text></g><!--link Restuarante to Usuario--><g id="link_Restuarante_Usuario"><path codeLine="49" d="M480.45,134.68 C366.44,177.06 128.21,284.25 33.16,467.46 C6,519.82 24.1,754.25 52.16,819.02 C61.46,840.46 63.9476,847.1048 79.4176,865.0248 " fill="none" id="Restuarante-to-Usuario" style="stroke:#181818;stroke-width:1.0;"/><polygon fill="none" points="91.18,878.65,83.9593,861.104,74.8759,868.9456,91.18,878.65" style="stroke:#181818;stroke-width:1.0;"/></g><!--link Restuarante to Pedido--><g id="link_Restuarante_Pedido"><path codeLine="50" d="M480.02,217.92 C467.67,238.34 464.3881,243.7796 453.1281,262.3896 " fill="none" id="Restuarante-to-Pedido" style="stroke:#181818;stroke-width:1.0;"/><polygon fill="none" points="443.81,277.79,458.2615,265.4956,447.9946,259.2835,443.81,277.79" style="stroke:#181818;stroke-width:1.0;"/></g><!--link Restuarante to Bodega--><g id="link_Restuarante_Bodega"><path codeLine="51" d="M606,167 C651.17,205.47 697.8448,245.2209 741.3948,282.3009 " fill="none" id="Restuarante-to-Bodega" style="stroke:#181818;stroke-width:1.0;"/><polygon fill="none" points="755.1,293.97,745.2845,277.7325,737.5051,286.8693,755.1,293.97" style="stroke:#181818;stroke-width:1.0;"/></g><!--link Restuarante to Mesa--><g id="link_Restuarante_Mesa"><path codeLine="52" d="M540.6,218.43 C538.49,304.94 536.0494,404.9254 534.5694,465.5354 " fill="none" id="Restuarante-to-Mesa" style="stroke:#181818;stroke-width:1.0;"/><polygon fill="none" points="534.13,483.53,540.5676,465.6818,528.5712,465.3889,534.13,483.53" style="stroke:#181818;stroke-width:1.0;"/></g><!--link Restuarante to Plato--><g id="link_Restuarante_Plato"><path codeLine="53" d="M586.21,218.43 C618.73,297.71 655.2584,386.7668 681.4184,450.5368 " fill="none" id="Restuarante-to-Plato" style="stroke:#181818;stroke-width:1.0;"/><polygon fill="none" points="688.25,467.19,686.9695,448.2596,675.8674,452.814,688.25,467.19" style="stroke:#181818;stroke-width:1.0;"/></g><!--link Bodega to Ingrediente--><g id="link_Bodega_Ingrediente"><path codeLine="62" d="M806.54,391.41 C801.8,439.29 794.04,515.14 786.16,580.64 C782.85,608.22 781.2607,620.8076 777.6807,646.8576 " fill="none" id="Bodega-to-Ingrediente" style="stroke:#181818;stroke-width:1.0;"/><polygon fill="none" points="775.23,664.69,783.6248,647.6745,771.7365,646.0407,775.23,664.69" style="stroke:#181818;stroke-width:1.0;"/></g><!--link Plato to Ingrediente--><g id="link_Plato_Ingrediente"><path codeLine="63" d="M726.27,581 C733.26,606.93 736.9193,620.4819 744.1693,647.3419 " fill="none" id="Plato-to-Ingrediente" style="stroke:#181818;stroke-width:1.0;"/><polygon fill="none" points="748.86,664.72,749.962,645.7784,738.3766,648.9055,748.86,664.72" style="stroke:#181818;stroke-width:1.0;"/></g><!--link Empleado to Usuario--><g id="link_Empleado_Usuario"><path codeLine="81" d="M172.16,819.39 C172.16,839.1 172.16,847.77 172.16,866.72 " fill="none" id="Empleado-to-Usuario" style="stroke:#181818;stroke-width:1.0;"/><polygon fill="#181818" points="172.16,878.72,176.16,872.72,172.16,866.72,168.16,872.72,172.16,878.72" style="stroke:#181818;stroke-width:1.0;"/></g><!--link Cliente to Usuario--><g id="link_Cliente_Usuario"><path codeLine="82" d="M338.16,778.58 C310.03,807.79 281.8159,837.0783 250.1859,869.9083 " fill="none" id="Cliente-to-Usuario" style="stroke:#181818;stroke-width:1.0;"/><polygon fill="#181818" points="241.86,878.55,248.9035,877.0044,250.1859,869.9083,243.1424,871.4538,241.86,878.55" style="stroke:#181818;stroke-width:1.0;"/></g><!--link Cocinero to Empleado--><g id="link_Cocinero_Empleado"><path codeLine="98" d="M130.09,581 C135.32,599.38 137.9869,608.7478 143.7269,628.9278 " fill="none" id="Cocinero-to-Empleado" style="stroke:#181818;stroke-width:1.0;"/><polygon fill="#181818" points="147.01,640.47,149.2159,633.6046,143.7269,628.9278,141.5211,635.7933,147.01,640.47" style="stroke:#181818;stroke-width:1.0;"/></g><!--link Garzon to Empleado--><g id="link_Garzon_Empleado"><path codeLine="99" d="M248.33,581 C238.86,599.38 233.5873,609.6232 223.1873,629.8032 " fill="none" id="Garzon-to-Empleado" style="stroke:#181818;stroke-width:1.0;"/><polygon fill="#181818" points="217.69,640.47,223.9942,636.969,223.1873,629.8032,216.883,633.3042,217.69,640.47" style="stroke:#181818;stroke-width:1.0;"/></g><!--link Pedido to Cliente--><g id="link_Pedido_Cliente"><path codeLine="101" d="M401.67,407.74 C397.47,484.74 391.4982,594.2266 387.7482,663.1266 " fill="none" id="Pedido-to-Cliente" style="stroke:#181818;stroke-width:1.0;"/><polygon fill="none" points="386.77,681.1,393.7394,663.4527,381.7571,662.8005,386.77,681.1" style="stroke:#181818;stroke-width:1.0;"/></g><!--link Pedido to Garzon--><g id="link_Pedido_Garzon"><path codeLine="102" d="M359.31,407.95 C345.54,427.25 341.0115,433.6123 327.6415,452.3323 " fill="none" id="Pedido-to-Garzon" style="stroke:#181818;stroke-width:1.0;"/><polygon fill="none" points="317.18,466.98,332.5241,455.8195,322.759,448.8451,317.18,466.98" style="stroke:#181818;stroke-width:1.0;"/></g><!--link Pedido to Mesa--><g id="link_Pedido_Mesa"><path codeLine="103" d="M451.01,407.95 C469.02,433.18 478.6527,446.6792 494.4627,468.8292 " fill="none" id="Pedido-to-Mesa" style="stroke:#181818;stroke-width:1.0;"/><polygon fill="none" points="504.92,483.48,499.3463,465.3435,489.5791,472.315,504.92,483.48" style="stroke:#181818;stroke-width:1.0;"/></g><!--link Pedido to Plato--><g id="link_Pedido_Plato"><path codeLine="104" d="M490.52,385.65 C534.84,408.37 589.38,437.81 636.16,467.46 C641.91,471.1 633.0336,464.7467 638.8436,468.7967 " fill="none" id="Pedido-to-Plato" style="stroke:#181818;stroke-width:1.0;"/><polygon fill="none" points="653.61,479.09,642.2747,463.8745,635.4125,473.7188,653.61,479.09" style="stroke:#181818;stroke-width:1.0;"/></g><!--SRC=[PLFBZjim3BpxAtnik_0lz51ZKHJe0aM1zcemCfCbAei29UVGnx-NUddj-9988t8u9CUZXH3wxnZY2W8kufzkw1ql5q4zp2HeZ25sUf4rwkygTl9m8mTwUMM12JnAN6Mx6qB9sORrd_KGqUAL7NTFFLo4vDrxFHcDWdJyrtLZLl4Zg0RY_Y3XJD8UfxN4vo0N1GAgA2M6vK8WuuRjQtp3cUPIOj60b7n5ymfJaIu8jLkT2CpfUT4CJYtp6_TpVjppVk8PRv1v3NWbcM7M-9igd46-k9ie3UfyS-yNZe_WnlI2uO5dqW47TX0qKwD52ydO7W_DMOWFuvin625Vcxg3PKcp95oyDYNeK_Pk_Vqm_FtO5d5wADCxmRNv4vvQEO55PPEy6y9HU8XiVctRCRpuxB1olQCpjAIij9Hqm-AagYJNsL5tPJ8dk8fuNhn5gBPe1PDxOdD3MD5cDy3Lwoy5y5bbSasou5Clw5OL1SNSWIqPqYN_19CvC6IyhUyhcTG2lAWIKmnQf8psRHP-rVx2P0gasLwZ2xzWGBctpsVJFmmVsbVKDQOzrXeUsP13AGthx29TgUdCtlUeucmsSJAY5FEdh5gpy7m6-SskkjLk91eRUG4fTic2hSNx0H2C93iacRYfIf9RJrsjSS2w-XddXTP63rX9Ea3PZ7iWU-8_]--></g></svg>